<svg width="44" height="31" viewBox="0 0 44 31" fill="none" xmlns="http://www.w3.org/2000/svg">
<path d="M14.9567 26.0943C14.9567 25.6781 14.6771 25.4006 14.2578 25.4006H2.09685C1.67751 25.4006 1.39795 25.6781 1.39795 26.0943C1.39795 26.5105 1.67751 26.788 2.09685 26.788H14.2578C14.6771 26.788 14.9567 26.4411 14.9567 26.0943Z" fill="black"/>
<path d="M4.89213 28.869H3.49432C3.07497 28.869 2.79541 29.1465 2.79541 29.5627C2.79541 29.9789 3.07497 30.2564 3.49432 30.2564H4.89213C5.31147 30.2564 5.59103 29.9789 5.59103 29.5627C5.59103 29.1465 5.31147 28.869 4.89213 28.869Z" fill="black"/>
<path d="M8.17719 22.6258C8.17719 22.2096 7.89763 21.9321 7.47828 21.9321H0.698905C0.279562 21.9321 0 22.2096 0 22.6258C0 23.042 0.279562 23.3195 0.698905 23.3195H7.47828C7.89763 23.3195 8.17719 22.9726 8.17719 22.6258Z" fill="black"/>
<path d="M42.9129 23.8051C42.7032 23.3889 42.2839 23.0421 41.8646 22.834L36.5529 20.8223L34.3863 20.0593C33.7573 19.7818 33.1981 19.3656 32.8487 18.8106L31.0315 15.8278C31.381 15.7585 31.5907 15.481 31.5907 15.1342C31.5907 14.7179 31.3111 14.4405 30.8917 14.4405H30.1928L29.3542 13.0531C29.7036 12.9838 29.9133 12.7063 29.9133 12.3594C29.9133 11.9432 29.6337 11.6658 29.2144 11.6658H28.5155L27.8166 10.5559C28.0961 10.4865 28.3058 10.2091 28.3058 9.93158C28.3058 9.51538 28.0262 9.23791 27.6069 9.23791H26.9779L26.0693 7.78119C26.0693 7.78119 26.0693 7.71182 25.9994 7.71182C25.1607 6.74067 24.0425 6.2551 22.8543 6.39384C21.806 6.53257 20.9673 7.15688 20.6178 7.91992C20.5479 8.12802 20.5479 8.33613 20.6877 8.54423L26.4886 18.3944C26.5585 18.5332 26.6983 18.6719 26.8381 18.6719L33.9669 21.3772H34.0368L36.1335 22.1403L41.3753 24.1519C41.5151 24.2213 41.6549 24.2907 41.7248 24.4988C42.0043 25.0537 42.0043 25.6087 41.6549 26.1636H30.2627C29.5638 26.1636 28.8649 25.9555 28.3058 25.5393L8.80634 11.1802C8.80634 11.1802 9.0859 11.0415 9.43536 10.5559C9.78481 10.0703 9.92459 9.44601 9.92459 8.8217L9.29557 2.99482L10.1343 1.67684C10.3439 1.39937 10.7633 1.33 11.0428 1.5381C11.2525 1.74621 12.0912 2.43988 14.118 5.70016C15.1664 7.22625 16.8437 8.33613 18.7308 8.6136C19.0802 8.68297 19.4996 8.4055 19.5695 8.05866C19.6394 7.71182 19.3598 7.29561 19.0104 7.22625C17.5427 6.94878 16.1448 6.11637 15.3062 4.86775C12.86 1.1219 12.1611 0.566958 11.8815 0.358856C10.9729 -0.265453 9.71492 -0.0573499 9.01601 0.844429L4.75269 7.57308C4.47313 7.98929 4.40324 8.47486 4.47313 8.96044C4.05379 9.09917 3.63444 9.30727 3.42477 9.72348L2.30652 11.4577C1.67751 12.3594 1.95707 13.6081 2.86565 14.2324C3.49466 14.7179 4.82258 15.5504 6.77952 16.799C6.9193 16.8683 7.05908 16.9377 7.12897 16.9377C7.33864 16.9377 7.54831 16.799 7.68809 16.5909C7.89776 16.244 7.82787 15.8278 7.47842 15.6197C5.59138 14.3711 4.26346 13.5387 3.63444 13.0531C3.35488 12.845 3.28499 12.4982 3.49466 12.1513L4.54302 10.5559C4.75269 10.2784 5.17203 10.2091 5.4516 10.4172L27.3972 26.6492C28.2359 27.2735 29.2144 27.551 30.1928 27.551H39.8377C38.37 28.2446 36.3432 28.8689 34.5959 28.8689H32.1498H30.1229C28.9348 28.8689 27.7467 28.5221 26.7682 27.8978C22.7146 25.3312 15.1664 20.5448 9.64503 17.0071C9.29557 16.799 8.87623 16.8683 8.66656 17.2152C8.45689 17.562 8.52678 17.9782 8.87623 18.1863C14.2578 21.6547 21.5963 26.3023 25.7198 28.9383H7.68809C7.26875 28.9383 6.98919 29.2158 6.98919 29.632C6.98919 30.0482 7.26875 30.3257 7.68809 30.3257H30.1229H32.1498H34.5261C37.3916 30.3257 41.5151 28.7996 42.5635 27.3428C43.472 26.0942 43.5419 24.915 42.9129 23.8051ZM27.4671 17.562L22.0156 8.33613C22.2253 8.12803 22.5748 7.91992 22.9941 7.85056C23.4135 7.78119 24.1823 7.85055 24.8812 8.6136L25.3005 9.30727H24.6715C24.2521 9.30727 23.9726 9.58474 23.9726 10.001C23.9726 10.4172 24.2521 10.6946 24.6715 10.6946H26.1392L26.8381 11.8045H26.279C25.8596 11.8045 25.5801 12.082 25.5801 12.4982C25.5801 12.9144 25.8596 13.1919 26.279 13.1919H27.6768L28.5155 14.5098H27.9563C27.537 14.5098 27.2574 14.7873 27.2574 15.2035C27.2574 15.6197 27.537 15.8972 27.9563 15.8972H29.3542L31.3111 18.9494L27.4671 17.562ZM5.94083 8.33613L8.10744 4.93712L8.52678 8.96044C8.52678 9.23791 8.45689 9.51538 8.31711 9.72348C8.17733 9.93158 7.89776 10.4865 7.26875 10.001C7.26875 10.001 6.9193 9.79285 6.29028 9.30727C5.87094 8.96044 5.80105 8.6136 5.94083 8.33613Z" fill="black"/>
</svg>
