<?xml version="1.0" standalone="no"?>
<!DOCTYPE svg PUBLIC "-//W3C//DTD SVG 20010904//EN"
 "http://www.w3.org/TR/2001/REC-SVG-20010904/DTD/svg10.dtd">
<svg version="1.0" xmlns="http://www.w3.org/2000/svg"
 width="1408.000000pt" height="1408.000000pt" viewBox="0 0 1408.000000 1408.000000"
 preserveAspectRatio="xMidYMid meet">
<metadata>
Created by potrace 1.11, written by Peter Selinger 2001-2013
</metadata>
<g transform="translate(0.000000,1408.000000) scale(0.100000,-0.100000)"
fill="#000000" stroke="none">
<path d="M3274 11980 c-40 -10 -94 -29 -120 -41 -27 -13 -52 -22 -56 -21 -5 1
-8 -3 -8 -10 0 -6 -3 -9 -6 -5 -3 3 -18 -5 -32 -19 -15 -13 -31 -24 -36 -24
-5 0 -36 -29 -70 -64 -40 -42 -117 -153 -221 -318 -87 -139 -188 -297 -222
-350 -35 -53 -63 -102 -63 -107 0 -6 -3 -11 -8 -11 -4 0 -16 -17 -27 -37 -11
-21 -25 -42 -32 -46 -7 -4 -13 -13 -13 -18 0 -10 -80 -138 -131 -211 -10 -15
-19 -30 -19 -33 0 -4 -13 -25 -29 -48 -16 -23 -44 -67 -63 -97 -19 -30 -49
-77 -66 -105 -17 -27 -36 -55 -42 -62 -5 -7 -10 -17 -10 -23 0 -5 -5 -10 -10
-10 -6 0 -9 -3 -8 -7 1 -5 -18 -39 -43 -78 -78 -119 -103 -159 -114 -178 -17
-30 -156 -247 -232 -365 -40 -62 -73 -115 -73 -118 0 -2 -9 -17 -21 -33 -11
-15 -22 -34 -23 -42 -2 -8 -8 -27 -15 -44 -6 -16 -14 -37 -17 -45 -12 -31 -18
-98 -17 -187 l1 -92 -36 -12 c-21 -6 -42 -15 -48 -20 -6 -5 -14 -6 -17 -2 -4
3 -7 1 -7 -6 0 -7 -4 -9 -10 -6 -5 3 -10 2 -10 -3 0 -6 -13 -14 -28 -20 -16
-5 -44 -24 -62 -41 -19 -17 -37 -31 -41 -31 -7 0 -74 -92 -74 -102 0 -4 -7
-16 -15 -26 -8 -10 -20 -27 -27 -38 -52 -84 -99 -158 -175 -273 -48 -73 -88
-135 -88 -137 0 -2 -15 -25 -34 -51 -141 -197 -164 -448 -59 -658 42 -87 51
-98 118 -168 57 -59 115 -108 115 -99 0 4 4 2 8 -3 4 -6 25 -23 47 -40 22 -16
45 -33 50 -37 6 -5 37 -26 70 -48 33 -22 67 -44 75 -50 8 -5 58 -38 110 -71
52 -34 120 -79 152 -100 31 -22 61 -39 67 -39 6 0 11 -3 11 -8 0 -4 20 -18 45
-31 25 -13 45 -28 45 -32 0 -5 4 -9 10 -9 8 0 177 -105 205 -127 6 -5 33 -22
60 -38 28 -16 71 -44 97 -62 26 -18 50 -33 54 -33 3 0 20 -11 38 -25 18 -14
38 -25 44 -25 6 0 12 -4 14 -9 2 -5 30 -22 63 -39 92 -46 161 -34 232 40 89
92 91 239 5 317 -30 27 -147 105 -522 350 -8 6 -71 48 -140 93 -69 46 -129 85
-135 87 -5 2 -37 22 -70 45 -33 23 -67 46 -77 51 -17 10 -265 182 -283 196
-82 64 -126 123 -120 161 2 10 -1 20 -6 23 -4 3 -4 16 0 28 5 12 8 24 7 27 -2
9 38 100 44 100 3 0 16 20 30 45 14 25 28 45 32 45 5 0 8 4 8 10 0 8 65 108
90 138 6 6 8 12 5 12 -3 0 4 10 15 22 11 13 23 33 26 45 4 13 10 21 14 18 4
-3 11 6 14 20 4 14 10 25 15 25 5 0 14 14 21 30 7 17 16 30 21 30 4 0 10 9 14
20 20 62 128 121 208 114 42 -4 106 -34 126 -58 8 -9 19 -16 26 -16 8 0 15 -4
17 -8 2 -5 55 -47 118 -93 63 -46 120 -88 126 -94 6 -5 22 -17 34 -25 44 -30
366 -268 382 -284 10 -9 20 -16 23 -16 4 0 130 -93 205 -150 26 -20 202 -150
406 -300 64 -47 122 -91 129 -98 8 -6 18 -12 23 -12 6 0 12 -4 14 -8 2 -5 30
-28 63 -53 33 -24 62 -47 63 -51 2 -5 8 -8 13 -8 5 0 55 -35 111 -78 57 -42
146 -108 198 -146 52 -38 100 -74 105 -81 6 -6 21 -18 35 -26 14 -8 97 -68
185 -133 179 -133 258 -191 299 -221 16 -11 33 -25 40 -30 6 -6 43 -33 81 -60
39 -27 75 -54 80 -60 6 -6 23 -20 40 -30 32 -20 46 -31 76 -57 10 -10 21 -18
24 -18 3 0 11 -5 18 -10 7 -6 44 -34 82 -62 39 -29 72 -55 73 -60 2 -4 10 -8
18 -8 8 0 14 -4 14 -8 0 -4 12 -15 28 -24 15 -9 36 -24 47 -33 11 -9 54 -40
95 -70 41 -30 80 -58 85 -63 12 -9 170 -127 235 -174 25 -18 47 -35 50 -38 3
-3 29 -23 59 -44 30 -21 59 -43 65 -47 48 -40 60 -49 66 -49 4 0 16 -8 28 -18
11 -10 31 -26 44 -35 43 -32 473 -350 535 -396 34 -25 115 -85 180 -133 65
-48 127 -94 138 -102 11 -9 49 -37 85 -63 36 -26 74 -56 84 -65 11 -10 24 -18
28 -18 5 0 19 -9 31 -21 12 -12 33 -28 47 -37 23 -16 303 -222 325 -240 6 -4
53 -39 105 -77 52 -38 97 -72 100 -75 3 -3 45 -35 95 -71 49 -35 97 -69 105
-76 15 -12 295 -219 335 -248 28 -21 288 -213 300 -222 6 -5 53 -40 105 -78
52 -38 100 -73 105 -78 154 -117 425 -312 491 -354 37 -24 199 -101 258 -122
59 -22 153 -47 211 -57 17 -3 41 -7 55 -10 14 -3 48 -8 75 -11 28 -4 769 -7
1648 -7 879 -1 1596 -5 1594 -10 -1 -4 -18 -14 -37 -21 -19 -7 -100 -40 -180
-72 -139 -57 -337 -129 -376 -136 -11 -2 -32 -10 -49 -16 -16 -7 -37 -14 -45
-16 -8 -2 -35 -8 -60 -15 -25 -7 -52 -14 -60 -16 -8 -2 -33 -8 -55 -14 -22 -7
-50 -12 -62 -13 -13 0 -23 -4 -23 -8 0 -4 -8 -6 -17 -4 -10 1 -25 -1 -34 -6
-9 -4 -34 -10 -55 -13 -21 -2 -39 -5 -39 -6 0 -1 -9 -3 -20 -4 -11 -2 -38 -6
-60 -10 -45 -8 -59 -10 -130 -19 -122 -16 -165 -19 -296 -22 -76 -2 -143 -6
-148 -10 -5 -3 -12 -2 -14 2 -6 10 -350 9 -365 -1 -7 -4 -12 -4 -12 1 0 10
-612 9 -628 -1 -7 -4 -12 -4 -12 1 0 4 -102 8 -228 9 -207 0 -312 6 -389 20
-15 3 -37 7 -48 9 -31 5 -76 15 -120 26 -22 6 -47 11 -55 11 -8 0 -21 5 -27
11 -7 5 -13 6 -13 2 0 -4 -7 -2 -15 5 -8 7 -15 10 -15 6 0 -4 -13 0 -30 9 -16
9 -30 13 -30 11 0 -5 -96 33 -178 70 -28 13 -54 24 -57 24 -3 0 -39 20 -81 45
-41 25 -78 45 -80 45 -3 0 -10 5 -17 10 -11 10 -91 62 -132 87 -17 10 -128 80
-199 126 -155 99 -328 207 -332 207 -3 0 -12 6 -19 13 -32 28 -45 38 -45 33 0
-3 -33 16 -72 43 -40 26 -91 58 -113 71 -22 13 -41 28 -43 32 -2 4 -8 8 -13 8
-5 0 -40 20 -77 44 -110 71 -196 126 -427 271 -121 77 -222 143 -223 147 -2 4
-8 6 -13 2 -5 -3 -9 0 -9 5 0 6 -5 11 -10 11 -6 0 -16 5 -23 10 -7 6 -86 58
-177 115 -91 57 -203 128 -250 158 -47 30 -161 103 -255 162 -162 103 -202
128 -346 220 -34 22 -69 45 -78 50 -115 70 -207 131 -209 137 -2 4 -8 8 -13 8
-6 0 -44 23 -86 50 -42 28 -80 50 -84 50 -5 0 -9 5 -9 10 0 6 -5 10 -11 10 -5
0 -37 18 -69 40 -32 22 -62 40 -65 40 -3 0 -11 5 -18 11 -15 13 -200 133 -207
134 -3 0 -16 8 -30 18 -14 10 -81 53 -150 97 -69 43 -130 83 -136 88 -6 5 -20
13 -32 16 -12 4 -22 11 -22 16 0 5 -9 12 -20 15 -11 3 -26 12 -33 18 -19 18
-50 37 -69 43 -10 4 -18 10 -18 15 0 5 -7 9 -15 9 -8 0 -15 5 -15 10 0 6 -5
10 -11 10 -5 0 -37 18 -69 40 -32 22 -63 40 -68 40 -5 0 -15 7 -22 15 -7 8
-37 29 -66 46 -30 17 -60 36 -67 42 -7 7 -23 18 -35 25 -12 6 -32 18 -44 25
-12 6 -31 20 -42 30 -11 9 -23 17 -28 17 -4 0 -65 37 -135 83 -70 46 -153 98
-183 117 -30 19 -61 40 -68 47 -7 7 -20 13 -28 13 -8 0 -14 5 -14 10 0 6 -7
10 -15 10 -8 0 -15 5 -15 10 0 6 -6 10 -13 10 -7 0 -23 9 -35 20 -12 11 -26
20 -32 20 -6 0 -13 6 -16 13 -3 8 -10 14 -17 14 -7 0 -32 14 -57 30 -131 90
-250 161 -290 175 -70 23 -138 14 -192 -24 -42 -30 -55 -45 -75 -88 -45 -96
-34 -174 33 -249 25 -28 50 -51 55 -51 5 0 50 -27 100 -60 50 -33 93 -60 95
-60 3 0 14 -9 26 -20 12 -10 24 -17 28 -15 5 3 10 -2 14 -10 3 -8 10 -15 16
-15 6 0 51 -27 101 -60 50 -33 94 -60 99 -60 5 0 10 -3 12 -7 4 -9 65 -53 73
-53 3 0 53 -31 111 -70 59 -38 110 -70 115 -70 5 0 9 -4 9 -10 0 -5 4 -10 10
-10 5 0 54 -29 107 -63 187 -122 269 -174 393 -252 69 -43 127 -82 130 -85 3
-4 20 -15 39 -26 41 -23 161 -99 178 -114 7 -5 15 -10 18 -10 8 0 119 -74 127
-85 4 -5 8 -6 8 -2 0 4 6 3 13 -3 6 -6 93 -63 192 -125 99 -63 185 -118 191
-122 5 -4 19 -13 30 -20 59 -37 161 -102 249 -159 55 -36 108 -68 118 -71 9
-3 17 -9 17 -13 0 -4 20 -18 45 -31 25 -13 45 -27 45 -31 0 -5 4 -8 9 -8 10 0
184 -109 208 -130 7 -5 15 -10 18 -10 3 0 39 -22 80 -50 41 -27 79 -50 85 -50
5 0 10 -4 10 -10 0 -5 4 -10 9 -10 5 0 49 -26 98 -58 48 -32 95 -61 103 -65 8
-4 47 -28 87 -54 39 -27 143 -93 230 -148 87 -55 160 -103 161 -107 2 -5 8 -8
13 -8 5 0 53 -29 107 -63 164 -107 242 -157 248 -157 8 0 69 -44 72 -52 2 -5
8 -8 13 -8 8 0 151 -89 176 -110 6 -5 28 -19 47 -30 20 -11 70 -42 112 -70 41
-27 80 -50 85 -50 5 0 9 -4 9 -10 0 -5 7 -10 15 -10 8 0 15 -4 15 -10 0 -5 5
-10 10 -10 6 0 43 -21 83 -48 40 -26 84 -54 100 -61 15 -8 27 -18 27 -23 0 -5
4 -6 10 -3 5 3 10 2 10 -3 0 -4 17 -18 38 -30 20 -11 68 -41 105 -66 38 -25
71 -46 73 -46 3 0 38 -22 79 -50 41 -27 78 -50 83 -50 5 0 15 -7 22 -15 11
-13 -319 -15 -2906 -17 -2784 -3 -2921 -4 -2952 -21 -96 -52 -135 -156 -103
-274 15 -55 51 -96 109 -124 l47 -23 4370 -1 c2404 -1 4375 3 4382 8 6 4 14 3
18 -3 3 -6 10 -8 15 -5 5 3 40 8 77 10 37 3 88 7 113 10 25 3 65 8 90 10 25 2
56 7 70 10 14 3 43 8 65 10 96 13 390 78 515 116 36 10 76 20 90 22 14 1 27 4
30 7 3 3 73 27 155 54 83 28 215 76 294 108 138 56 431 195 441 209 3 3 29 19
58 34 28 15 52 31 52 37 0 5 4 7 9 3 5 -3 16 2 24 10 9 8 18 15 21 15 3 0 14
6 23 14 10 8 47 36 82 63 158 117 287 278 365 458 15 33 31 68 36 77 18 31 51
173 57 243 16 178 -9 325 -82 480 -19 40 -35 78 -35 84 0 6 -4 11 -9 11 -5 0
-14 14 -21 31 -11 26 -126 150 -172 186 -32 24 -131 85 -142 87 -6 1 -28 10
-50 19 -21 9 -42 17 -47 17 -5 0 -17 4 -27 9 -9 5 -55 23 -102 41 -47 17 -94
35 -105 40 -11 4 -58 22 -105 40 -80 30 -211 79 -255 96 -11 4 -22 8 -25 9 -3
1 -18 7 -35 14 -82 32 -106 41 -175 66 -41 15 -88 33 -105 40 -16 7 -52 20
-80 30 -27 9 -59 21 -70 26 -11 4 -105 40 -210 79 -104 40 -199 75 -210 80
-26 11 -115 43 -190 70 -33 11 -67 23 -75 27 -8 3 -20 7 -26 8 -7 2 -56 19
-110 38 -288 104 -360 129 -369 131 -18 3 -169 80 -183 93 -7 7 -17 13 -21 13
-4 0 -18 8 -30 17 -129 105 -164 136 -207 186 -27 33 -51 64 -54 71 -3 6 -22
37 -43 68 -20 31 -37 61 -37 67 0 5 -3 11 -8 13 -6 2 -59 87 -142 227 -9 14
-28 45 -43 68 -15 24 -27 47 -27 53 0 5 -4 10 -10 10 -5 0 -10 4 -10 9 0 12
-63 115 -73 119 -4 2 -7 8 -7 13 0 5 -26 51 -58 102 -32 51 -61 99 -65 107 -4
8 -16 29 -27 45 -11 17 -26 42 -35 58 -15 26 -15 27 10 27 14 0 25 5 25 10 0
6 6 10 13 10 22 0 77 57 93 96 52 124 10 249 -100 300 -46 21 -65 24 -187 24
l-136 0 -27 40 c-14 22 -26 43 -26 46 0 4 -11 22 -26 41 -14 18 -22 33 -19 33
3 0 1 6 -5 13 -19 21 -160 258 -160 268 0 5 3 8 8 7 15 -3 78 31 98 54 47 51
59 81 65 163 4 48 -20 114 -53 150 -53 59 -87 69 -243 71 -77 2 -143 3 -147 3
-5 1 -41 54 -58 86 -12 24 -45 71 -55 77 -5 4 -7 8 -3 8 4 0 -18 37 -48 83
-29 45 -54 87 -54 92 0 6 13 16 28 23 16 6 37 20 48 31 25 25 55 61 49 61 -2
0 2 15 10 33 30 73 -5 191 -73 238 -49 35 -85 42 -222 45 -63 1 -117 2 -120 3
-3 1 -14 18 -25 39 -11 20 -22 39 -26 42 -3 3 -8 12 -12 20 -9 19 -193 311
-205 326 -5 6 -12 20 -16 31 -3 11 -18 26 -31 33 -14 7 -25 18 -26 24 -1 13
-157 153 -216 194 -111 77 -264 146 -382 173 -25 6 -55 13 -66 15 -11 3 -45 6
-76 8 -31 2 -62 7 -69 11 -9 6 -11 4 -5 -4 5 -10 3 -11 -11 -4 -11 5 -28 8
-39 7 -11 -1 -47 -5 -80 -9 -101 -11 -109 -12 -155 -24 -166 -44 -319 -130
-429 -240 -84 -85 -107 -115 -148 -201 -31 -62 -36 -147 -12 -190 15 -26 151
-260 172 -295 7 -11 27 -43 45 -72 17 -30 32 -55 32 -57 0 -2 29 -52 64 -110
36 -59 68 -116 71 -126 4 -11 10 -20 15 -20 4 0 10 -8 14 -17 3 -10 14 -31 23
-48 30 -49 189 -316 217 -365 15 -25 32 -57 39 -72 6 -16 14 -28 18 -28 4 0
19 -25 34 -55 16 -30 32 -55 37 -55 5 0 7 -4 3 -9 -3 -5 2 -16 10 -24 8 -9 15
-18 15 -20 0 -2 32 -57 70 -121 39 -65 70 -121 70 -127 0 -5 4 -9 9 -9 5 0 11
-8 14 -17 4 -10 17 -36 30 -58 13 -22 64 -107 112 -190 48 -82 93 -157 101
-165 7 -8 12 -17 11 -20 -1 -5 11 -24 60 -102 12 -21 23 -40 23 -42 0 -2 23
-41 50 -85 28 -44 50 -82 50 -85 0 -2 45 -79 100 -171 55 -91 100 -168 100
-169 0 -2 38 -66 84 -144 47 -77 93 -156 102 -174 9 -18 20 -35 23 -38 6 -5
23 -33 55 -94 26 -48 68 -80 126 -97 25 -7 49 -16 55 -21 5 -4 14 -8 21 -8 6
0 29 -8 50 -17 22 -9 42 -18 47 -19 4 -1 9 -3 12 -4 3 -1 8 -3 13 -5 4 -1 16
-5 27 -9 82 -32 209 -80 255 -97 30 -11 66 -25 80 -31 14 -5 26 -10 27 -10 1
0 53 -20 115 -44 62 -24 116 -44 120 -44 4 0 32 -11 62 -25 30 -14 58 -25 63
-25 7 0 225 -81 268 -100 11 -5 106 -41 210 -80 191 -72 343 -130 380 -145 11
-5 24 -7 29 -6 4 1 15 -4 23 -11 8 -7 20 -13 27 -14 14 -2 306 -112 326 -123
9 -5 31 -12 50 -16 28 -6 535 -185 600 -212 8 -3 20 -7 25 -8 6 -2 64 -24 130
-49 66 -26 167 -65 225 -87 58 -22 114 -44 125 -48 31 -14 89 -36 95 -36 3 0
16 -7 30 -15 14 -7 26 -13 27 -12 3 2 32 -7 58 -18 11 -5 58 -23 105 -40 47
-17 99 -38 117 -46 17 -8 34 -14 38 -14 4 0 21 -6 38 -14 18 -7 48 -19 67 -26
19 -7 44 -16 55 -21 41 -17 210 -81 220 -83 6 -1 15 -5 21 -8 5 -4 28 -13 50
-21 103 -37 339 -129 367 -144 17 -8 37 -22 45 -29 7 -8 17 -14 22 -14 4 0 18
-26 30 -58 13 -31 26 -61 30 -67 14 -20 30 -100 34 -168 3 -42 -1 -73 -18
-153 -6 -31 -55 -132 -67 -139 -10 -7 -3726 -7 -3771 -1 -14 2 -39 7 -55 10
-15 3 -43 8 -61 11 -57 9 -184 57 -260 97 -56 30 -265 174 -327 226 -5 4 -26
19 -45 32 -19 14 -37 27 -40 30 -3 3 -22 16 -42 30 -21 14 -38 28 -38 33 0 4
-4 7 -10 7 -5 0 -18 7 -27 15 -14 11 -269 200 -382 283 -102 74 -239 175 -251
185 -8 7 -31 23 -50 37 -19 13 -44 32 -54 42 -11 10 -23 18 -28 18 -7 0 -25
13 -62 45 -6 6 -34 26 -61 45 -28 19 -57 40 -65 47 -8 7 -82 62 -165 122 -82
60 -157 117 -166 125 -9 9 -18 16 -22 16 -5 0 -103 71 -212 155 -11 8 -45 33
-75 54 -30 22 -63 46 -72 54 -9 9 -26 21 -38 27 -12 6 -29 18 -38 26 -29 26
-162 124 -168 124 -2 0 -10 5 -17 10 -49 42 -67 56 -107 83 -25 17 -47 33 -50
37 -3 3 -21 17 -40 30 -19 13 -37 27 -40 30 -3 3 -27 20 -55 39 -27 19 -55 39
-60 45 -6 6 -18 16 -27 21 -36 22 -423 309 -426 317 -2 4 -10 8 -18 8 -8 0
-14 5 -14 10 0 6 -4 10 -10 10 -5 0 -19 8 -29 18 -24 21 -27 23 -136 102 -49
35 -96 70 -103 77 -7 7 -17 13 -20 13 -4 0 -19 10 -32 23 -14 12 -48 38 -75
57 -28 19 -54 38 -60 42 -11 9 -132 98 -390 288 -93 69 -174 128 -180 133 -5
4 -57 42 -115 84 -58 42 -106 80 -108 85 -2 4 -8 8 -13 8 -7 0 -50 31 -164
118 -5 4 -35 25 -65 47 -30 22 -64 48 -74 57 -11 10 -23 18 -27 18 -4 0 -14 6
-21 13 -25 24 -133 101 -137 98 -2 -1 -7 1 -10 6 -3 5 -51 43 -106 84 -55 41
-104 78 -110 82 -5 4 -50 37 -100 73 -49 37 -93 71 -97 78 -4 6 -8 7 -8 1 0
-6 -3 -6 -8 0 -4 6 -31 28 -61 49 -30 21 -59 42 -65 47 -53 44 -103 79 -113
79 -7 0 -13 4 -13 8 0 4 -46 41 -102 82 -57 41 -104 78 -106 82 -2 4 -8 8 -13
8 -8 0 -35 20 -64 48 -8 6 -17 12 -20 12 -4 0 -21 11 -39 25 -17 14 -36 29
-42 34 -6 5 -35 26 -65 47 -30 21 -56 41 -59 44 -3 3 -29 23 -58 44 -48 35
-52 40 -35 49 29 16 147 138 181 188 71 105 108 197 136 332 24 116 24 217 1
417 -1 14 -6 52 -9 85 -4 33 -9 78 -11 100 -3 22 -7 65 -10 95 -2 30 -7 66 -9
80 -3 14 -7 57 -10 95 -3 39 -8 81 -10 95 -2 14 -7 52 -10 85 -4 33 -8 74 -10
90 -5 34 -17 164 -21 211 -1 17 -4 35 -6 40 -3 5 -4 30 -4 56 0 27 -3 48 -6
48 -3 0 -6 12 -6 28 -1 15 -3 52 -7 82 -9 96 -18 174 -22 205 -2 17 -6 62 -9
100 -7 84 -12 111 -20 125 -3 5 0 10 7 10 8 0 9 3 3 8 -15 10 -17 31 -5 45 12
14 127 194 150 235 8 15 17 29 20 32 3 3 25 37 50 75 24 39 53 79 64 90 31 30
95 58 140 60 75 4 105 -14 211 -121 106 -107 125 -130 248 -288 43 -56 84
-108 90 -116 7 -8 20 -27 29 -41 9 -14 23 -32 30 -40 7 -8 36 -48 63 -89 28
-41 52 -77 56 -80 8 -8 251 -377 308 -470 56 -90 125 -192 152 -225 115 -139
303 -335 321 -335 4 0 18 -10 31 -22 33 -32 76 -68 82 -68 2 0 35 -22 72 -49
76 -54 243 -154 243 -145 0 4 7 1 15 -6 21 -17 114 -60 130 -60 7 0 15 -3 17
-7 4 -11 145 -59 258 -90 129 -34 238 -52 291 -49 117 8 221 118 212 223 -4
51 -32 116 -65 153 -26 28 -78 64 -78 54 0 -4 -6 -2 -12 3 -7 6 -42 16 -78 22
-36 7 -72 15 -80 18 -8 4 -21 7 -28 9 -43 9 -212 69 -212 76 0 4 -7 8 -15 8
-33 0 -315 150 -323 172 -2 4 -8 8 -14 8 -16 0 -167 121 -243 196 -104 102
-160 173 -291 371 -65 98 -121 180 -125 183 -3 3 -8 12 -12 20 -7 15 -108 164
-127 187 -5 7 -10 16 -10 22 0 5 -4 11 -8 13 -4 2 -41 50 -81 108 -41 58 -78
107 -82 108 -5 2 -9 10 -9 17 0 8 -6 20 -13 27 -20 21 -107 138 -107 144 0 3
-6 11 -12 18 -7 7 -22 25 -33 40 -11 16 -32 42 -47 58 -16 17 -28 33 -28 37 0
3 -17 25 -38 48 -20 23 -55 63 -77 89 -82 97 -206 214 -225 214 -5 0 -10 3
-10 8 0 11 -123 65 -190 83 -79 20 -236 20 -316 -1z m-678 -1591 c1 -5 3 -10
4 -11 1 -2 3 -30 5 -63 2 -33 4 -60 5 -60 1 0 4 -20 6 -45 2 -25 6 -63 8 -85
6 -46 15 -129 21 -195 4 -45 11 -106 20 -190 3 -25 7 -70 9 -100 3 -30 5 -55
6 -55 1 0 3 -11 5 -25 3 -24 6 -56 21 -215 9 -90 8 -88 17 -102 5 -7 4 -13 -2
-13 -6 0 -7 -11 -2 -27 17 -60 -2 -225 -30 -259 -5 -6 -6 -14 -2 -17 3 -4 1
-7 -5 -7 -7 0 -12 -5 -12 -11 0 -26 -105 -151 -129 -155 -3 0 -14 -4 -24 -9
-10 -4 -40 -5 -67 -2 -38 5 -72 22 -171 89 -299 199 -380 280 -395 391 -8 58
2 86 80 207 34 52 67 107 75 123 8 15 17 27 21 27 4 0 15 18 25 40 10 22 21
40 25 40 4 0 13 14 20 30 7 17 16 30 21 30 5 0 9 4 9 10 0 9 24 48 137 222 24
37 43 70 43 73 0 3 5 11 11 18 21 24 149 227 149 237 0 6 4 10 9 10 5 0 15 12
23 28 41 80 60 101 64 71z m4939 -904 c84 -10 196 -55 276 -111 66 -46 169
-149 189 -189 8 -17 30 -54 48 -83 52 -83 55 -78 -60 -79 -125 -1 -166 -6
-205 -27 -41 -21 -90 -79 -101 -119 -13 -47 -8 -136 10 -178 19 -44 91 -104
137 -114 18 -4 145 -7 282 -7 206 0 252 -3 264 -15 8 -8 15 -19 15 -25 0 -5 9
-22 21 -36 32 -42 99 -152 99 -162 0 -6 5 -10 10 -10 6 0 10 -7 10 -15 0 -8 5
-15 10 -15 6 0 10 -5 10 -12 0 -6 7 -19 16 -29 9 -10 13 -22 10 -27 -3 -5 -53
-9 -111 -9 -111 -1 -148 -10 -201 -49 -26 -19 -63 -76 -70 -106 -1 -5 -3 -11
-4 -15 -7 -23 2 -118 13 -146 18 -42 66 -99 78 -91 5 3 9 0 9 -5 0 -6 9 -11
20 -11 11 0 20 -4 20 -8 0 -10 26 -11 308 -14 l223 -3 17 -30 c9 -16 20 -31
25 -33 4 -2 7 -10 7 -18 0 -8 5 -14 10 -14 6 0 10 -4 10 -10 0 -8 57 -100 161
-259 16 -25 29 -47 29 -50 0 -3 -53 -6 -118 -6 -130 0 -166 -11 -221 -66 -56
-56 -74 -185 -36 -258 18 -37 59 -81 73 -81 6 0 12 -4 14 -9 6 -19 66 -24 308
-27 135 -1 248 -3 251 -3 8 -1 69 -100 69 -112 0 -5 4 -9 8 -9 4 0 25 -28 45
-62 21 -35 78 -125 127 -201 50 -76 90 -143 90 -148 0 -5 3 -9 8 -9 4 0 18
-20 32 -45 14 -25 28 -45 32 -45 5 0 8 -5 8 -10 0 -6 23 -44 50 -85 28 -41 50
-76 50 -79 0 -2 23 -38 50 -79 28 -41 50 -77 50 -80 0 -8 -40 1 -54 12 -6 5
-15 9 -19 9 -4 0 -20 4 -35 10 -15 5 -52 19 -82 30 -30 11 -64 23 -75 28 -11
4 -24 8 -30 10 -8 2 -76 27 -195 71 -8 3 -24 8 -34 10 -11 2 -24 7 -30 12 -15
11 -190 71 -209 71 -9 0 -17 4 -19 10 -1 5 -12 11 -23 13 -11 1 -24 5 -30 8
-10 6 -85 33 -95 34 -3 0 -9 3 -15 6 -5 4 -41 17 -80 29 -38 12 -74 25 -80 29
-5 3 -32 13 -60 21 -48 15 -53 20 -112 115 -34 55 -62 106 -62 113 -1 6 -4 12
-8 12 -5 0 -19 23 -32 50 -14 28 -28 50 -32 50 -4 0 -9 6 -11 13 -2 10 -87
157 -170 298 -10 16 -26 42 -35 58 -10 16 -43 72 -72 123 -30 51 -92 155 -137
231 -46 75 -80 137 -76 137 4 0 2 4 -4 8 -6 4 -44 63 -84 132 -41 69 -78 128
-84 132 -6 4 -8 8 -4 8 4 0 -8 25 -27 55 -19 30 -35 56 -35 58 0 2 -42 73 -92
158 -51 85 -100 168 -108 184 -8 17 -17 32 -21 35 -5 5 -35 54 -67 110 -29 53
-201 343 -212 360 -6 8 -16 26 -23 40 -6 14 -16 30 -20 35 -17 21 -267 447
-267 456 0 18 117 94 188 121 104 41 172 48 297 33z"/>
<path d="M193 4982 c-24 -2 -43 -8 -43 -14 0 -6 -3 -8 -6 -5 -13 13 -81 -35
-107 -75 -55 -86 -47 -207 20 -283 30 -34 68 -53 119 -61 27 -4 544 -7 1150
-7 861 0 1109 3 1139 13 85 28 148 117 148 211 1 113 -58 191 -165 215 -49 10
-271 11 -285 1 -7 -5 -13 -6 -13 -1 0 11 -90 11 -107 1 -7 -5 -13 -5 -13 0 0
10 -331 10 -348 -1 -6 -4 -12 -4 -12 1 0 10 -91 10 -107 0 -7 -5 -13 -5 -13 0
0 10 -371 10 -388 -1 -6 -4 -12 -4 -12 1 0 10 -131 10 -147 0 -7 -5 -13 -5
-13 0 0 10 -131 10 -147 0 -7 -5 -13 -5 -13 0 0 10 -131 10 -147 0 -7 -5 -13
-5 -13 0 0 10 -131 10 -147 0 -7 -5 -13 -5 -13 0 0 10 -131 10 -147 0 -7 -5
-13 -5 -13 0 0 8 -79 11 -157 5z"/>
<path d="M675 3869 c-48 -3 -94 -12 -114 -23 -39 -21 -79 -58 -83 -78 -2 -7
-6 -15 -10 -18 -11 -8 -20 -61 -18 -105 3 -111 63 -188 165 -211 27 -7 3974
-7 4002 0 97 21 172 125 168 229 -5 95 -60 168 -146 196 -27 9 -538 12 -1960
14 -1058 1 -1960 0 -2004 -4z"/>
<path d="M1050 2753 c-126 -42 -184 -163 -140 -292 27 -79 79 -124 160 -138
54 -9 343 -9 363 0 9 4 17 4 17 0 0 -5 38 -7 85 -6 124 3 185 34 227 113 43
83 25 218 -37 273 -53 47 -101 59 -249 61 -78 1 -147 -2 -153 -7 -7 -5 -13 -6
-13 -1 0 5 -43 9 -95 9 -52 0 -95 -4 -95 -9 0 -5 -6 -4 -12 2 -9 7 -27 6 -58
-5z"/>
</g>
</svg>
